<svg width="102" height="102" viewBox="0 0 102 102" fill="none" xmlns="http://www.w3.org/2000/svg">
<path d="M69.712 72.3279C67.84 72.6639 65.776 72.8319 63.52 72.8319H54.16V26.7519H60.784C72.112 26.7519 77.776 30.4719 77.776 37.9119C77.776 41.8959 76.12 44.7999 72.808 46.6239L68.776 48.9279L73.096 50.5119C78.04 52.3359 80.512 55.8159 80.512 60.9519C80.512 63.2079 80.032 65.1519 79.072 66.7839C78.112 68.4159 76.768 69.6639 75.04 70.5279C73.36 71.3439 71.584 71.9439 69.712 72.3279Z" fill="black"/>
<path fill-rule="evenodd" clip-rule="evenodd" d="M4.73342 14.8184C2.95921 12.0048 -1.60972 4.04223 1.42027 1.01224C4.49077 -2.05826 12.6266 2.67468 15.3364 4.39501C32.3121 2.08187 69.8242 1.94355 87.0828 4.27473C89.9648 2.46613 97.8069 -1.98934 100.808 1.01224C103.577 3.78121 100 10.6695 98.0094 13.983C100.673 30.7903 100.663 70.7416 97.9805 87.3816C99.9654 90.6761 103.591 97.618 100.808 100.4C97.696 103.513 89.379 98.6072 86.7843 96.9489C69.4958 99.2253 32.6446 99.0904 15.6315 96.8285C13.2773 98.3519 4.61207 103.592 1.42027 100.4C-1.62458 97.3556 3.0042 89.3297 4.75932 86.5533C2.42221 69.7551 2.4136 31.7732 4.73342 14.8184ZM19 50.5919C19 69.9219 16.7614 85.5919 14 85.5919C11.2386 85.5919 9 69.9219 9 50.5919C9 31.262 11.2386 15.5919 14 15.5919C16.7614 15.5919 19 31.262 19 50.5919ZM62 24.6068C67.7344 24.7498 72.1051 25.9208 75.112 28.1199C78.328 30.4239 79.936 33.6879 79.936 37.9119C79.936 42.7119 77.92 46.2399 73.888 48.4959C79.744 50.7039 82.672 54.8559 82.672 60.9519C82.672 65.2719 81.088 68.7039 77.92 71.2479C74.752 73.7439 69.952 74.9919 63.52 74.9919H62V85.5919H60V74.9919H52V24.5919H60V13.5919H62V24.6068Z" fill="black"/>
<style>
path { fill: #000; }
@media (prefers-color-scheme: dark) {
path { fill: #FFF; }
}
</style>
</svg>
