<svg width="283" height="102" viewBox="0 0 283 102" fill="none" xmlns="http://www.w3.org/2000/svg">
<path d="M69.712 72.7359C67.84 73.0719 65.776 73.2399 63.52 73.2399H54.16V27.1599H60.784C72.112 27.1599 77.776 30.8799 77.776 38.3199C77.776 42.3039 76.12 45.2079 72.808 47.0319L68.776 49.3359L73.096 50.9199C78.04 52.7439 80.512 56.2239 80.512 61.3599C80.512 63.6159 80.032 65.5599 79.072 67.1919C78.112 68.8239 76.768 70.0719 75.04 70.9359C73.36 71.7519 71.584 72.3519 69.712 72.7359Z" fill="black"/>
<path fill-rule="evenodd" clip-rule="evenodd" d="M4.73342 15.2263C2.95921 12.4128 -1.60972 4.45019 1.42027 1.4202C4.49077 -1.65031 12.6266 3.08264 15.3364 4.80297C32.3121 2.48983 69.8242 2.35151 87.0828 4.68269C89.9648 2.87409 97.8069 -1.58138 100.808 1.4202C103.577 4.18917 100 11.0775 98.0094 14.391C100.673 31.1983 100.663 71.1496 97.9805 87.7895C99.9654 91.0841 103.591 98.0259 100.808 100.808C97.696 103.921 89.379 99.0152 86.7843 97.3568C69.4958 99.6333 32.6446 99.4983 15.6315 97.2365C13.2773 98.7598 4.61207 104 1.42027 100.808C-1.62458 97.7635 3.0042 89.7376 4.75932 86.9612C2.42221 70.163 2.4136 32.1811 4.73342 15.2263ZM19 50.9999C19 70.3298 16.7614 85.9999 14 85.9999C11.2386 85.9999 9 70.3298 9 50.9999C9 31.6699 11.2386 15.9999 14 15.9999C16.7614 15.9999 19 31.6699 19 50.9999ZM75.112 28.5279C72.1051 26.3288 67.7344 25.1578 62 25.0148V13.9999H60V24.9999H52V75.3999H60V85.9999H62V75.3999H63.52C69.952 75.3999 74.752 74.1519 77.92 71.6559C81.088 69.1119 82.672 65.6799 82.672 61.3599C82.672 55.2639 79.744 51.1119 73.888 48.9039C77.92 46.6479 79.936 43.1199 79.936 38.3199C79.936 34.0959 78.328 30.8319 75.112 28.5279Z" fill="black"/>
<path fill-rule="evenodd" clip-rule="evenodd" d="M214.372 69.608C211.78 73.016 207.484 74.72 201.484 74.72C195.484 74.72 191.188 73.016 188.596 69.608C186.004 66.2 184.708 60.704 184.708 53.12C184.708 45.536 186.004 40.04 188.596 36.632C191.188 33.224 195.484 31.52 201.484 31.52C207.484 31.52 211.78 33.224 214.372 36.632C216.964 40.04 218.26 45.536 218.26 53.12C218.26 60.704 216.964 66.2 214.372 69.608ZM207.532 34.472C205.9 33.944 203.884 33.68 201.484 33.68C199.084 33.68 197.068 33.944 195.436 34.472C193.804 34.952 192.292 35.888 190.9 37.28C189.556 38.624 188.548 40.616 187.876 43.256C187.204 45.848 186.868 49.136 186.868 53.12C186.868 57.104 187.204 60.416 187.876 63.056C188.548 65.648 189.556 67.64 190.9 69.032C192.292 70.376 193.804 71.312 195.436 71.84C197.068 72.32 199.084 72.56 201.484 72.56C203.884 72.56 205.9 72.32 207.532 71.84C209.164 71.312 210.652 70.376 211.996 69.032C213.388 67.64 214.42 65.648 215.092 63.056C215.764 60.416 216.1 57.104 216.1 53.12C216.1 49.136 215.764 45.848 215.092 43.256C214.42 40.616 213.388 38.624 211.996 37.28C210.652 35.888 209.164 34.952 207.532 34.472Z" fill="black"/>
<path d="M226.932 32.24L242.628 69.176L253.5 43.616L264.3 69.176L279.06 34.4H232.62V32.24H282.3L264.3 74.72L253.5 49.16L242.628 74.72L224.628 32.24H226.932Z" fill="black"/>
<path d="M106 32.24H108.16V74H106V32.24Z" fill="black"/>
<path d="M145.868 71.84V74H121.82V32.24H123.98V71.84H145.868Z" fill="black"/>
<path d="M178.212 71.84V74H154.164V32.24H156.324V71.84H178.212Z" fill="black"/>
</svg>
